<svg width="206" height="184" viewBox="0 0 206 184" fill="none" xmlns="http://www.w3.org/2000/svg">
<path d="M115.249 134.857C118.35 136.946 121.129 139.394 123.96 141.83C129.926 146.784 136.113 149.534 143.96 149.197C151.586 148.065 156.147 144.256 161.264 138.76C166.932 133.327 173.974 131.528 181.628 131.65C189.439 132.267 195.063 136.12 200.249 141.857C204.311 147.605 205.695 153.915 205.065 160.889C203.699 167.986 199.531 174.415 193.811 178.795C187.556 182.773 180.554 183.94 173.315 182.463C166.931 180.472 162.303 176.069 157.249 171.857C151.524 167.494 145.903 165.272 138.663 165.49C131.476 166.583 126.034 170.902 120.624 175.482C114.315 180.808 108.891 183.496 100.471 183.135C92.8798 182.187 87.3141 178.518 82.2486 172.857C78.2501 166.681 76.3615 160.245 77.2486 152.857C79.3554 144.747 83.2344 138.998 90.3502 134.541C98.7514 130.281 106.906 130.793 115.249 134.857Z" fill="#FE3D14"/>
<path d="M75.4085 67.83C82.4561 71.7652 86.7912 77.1269 89.2484 84.8573C90.3783 92.4599 89.6136 99.421 85.2484 105.857C79.8166 112.321 72.9552 114.901 65.2484 117.857C58.7023 120.672 54.1715 123.608 50.4359 129.92C47.8688 136.519 48.8931 144.092 50.2484 150.857C50.8717 159.548 50.1861 165.922 45.6859 173.482C39.6987 179.316 33.3376 182.705 24.9163 183.025C17.8571 182.581 11.338 179.808 6.24836 174.857C0.205986 166.858 -0.51261 159.783 0.248358 149.857C1.90148 143.245 6.5525 138.38 12.2484 134.857C15.5587 133.409 18.9661 132.243 22.3753 131.052C29.2585 128.607 34.8278 125.699 38.7484 119.295C41.6179 112.68 41.1924 104.492 39.1859 97.6698C37.4758 90.7154 38.3847 84.0124 41.889 77.7401C49.7562 66.8436 62.8416 62.2533 75.4085 67.83Z" fill="#FE451A"/>
<path d="M113.811 2.60749C114.978 3.3248 116.127 4.07215 117.249 4.85749C118.135 5.41436 119.022 5.97124 119.936 6.54499C125.593 12.2014 127.917 18.3101 128.335 26.2403C128.235 29.2736 127.605 31.8068 126.745 34.6973C125.188 41.4751 125.165 48.9531 128.896 54.9861C134.042 62.1034 141.244 64.7994 149.221 67.6915C156.396 70.4726 161.066 74.4078 165.186 80.92C167.601 87.5909 167.628 96.7064 164.811 103.232C161.422 108.828 156.165 113.302 150.436 116.357C141.868 117.702 133.606 117.976 126.249 112.857C120.544 107.666 116.49 102.904 116.112 94.9981C116.034 90.1004 116.27 85.6531 117.249 80.8575C117.895 73.269 117.885 66.2041 113.249 59.8575C108.531 55.3194 102.716 53.194 96.6861 50.92C88.7172 47.893 82.7996 44.3822 78.7486 36.67C75.956 29.3065 76.0245 21.7364 79.2486 14.545C86.1801 2.31645 100.453 -3.86761 113.811 2.60749Z" fill="#FE4419"/>
</svg>
